<?xml version="1.0" encoding="UTF-8"?>
<!DOCTYPE svg PUBLIC "-//W3C//DTD SVG 1.1//EN" "http://www.w3.org/Graphics/SVG/1.1/DTD/svg11.dtd">
<svg version="1.1" xmlns="http://www.w3.org/2000/svg" xmlns:xlink="http://www.w3.org/1999/xlink" x="0" y="0" width="180.674" height="205.496" viewBox="0, 0, 180.674, 205.496">
  <g id="Layer_1">
    <path d="M90.337,197.496 C57.188,197.496 26.84,181.071 8.681,153.433 L15.025,142.444 C34.824,162.544 62.055,174.008 90.337,174.008 C118.796,174.008 146.086,162.453 165.916,142.172 L172.029,153.379 C153.874,181.047 123.508,197.496 90.337,197.496 M180.186,151.625 L165.715,125.096 C164.657,123.157 162.229,122.44 160.288,123.5 C158.349,124.558 157.634,126.987 158.691,128.926 L161.895,134.799 C143.441,154.65 117.464,166.008 90.337,166.008 C63.456,166.008 37.602,154.803 19.188,135.234 L90.312,12.043 L145.413,108.859 C146.506,110.779 148.948,111.451 150.868,110.358 C152.788,109.266 153.459,106.822 152.366,104.903 L93.814,2.022 C93.105,0.776 91.783,0.005 90.349,-0 L90.337,-0 C88.908,-0 87.587,0.763 86.873,2 L0.536,151.541 C-0.203,152.821 -0.176,154.403 0.606,155.657 C20.068,186.865 53.612,205.496 90.337,205.496 C127.063,205.496 160.607,186.865 180.068,155.657 C180.831,154.433 180.876,152.892 180.186,151.625" fill="#000000" id="path29624"/>
    <path d="M151.464,117.117 C151.642,119.204 153.39,120.778 155.444,120.778 C155.559,120.778 155.674,120.772 155.789,120.763 L156.339,120.717 C158.54,120.529 160.172,118.592 159.985,116.391 C159.797,114.19 157.856,112.559 155.659,112.746 L155.11,112.792 C152.908,112.979 151.277,114.917 151.464,117.117" fill="#000000" id="path29626"/>
    <path d="M153.413,158.592 C146.655,164.314 139.166,169.088 131.152,172.78 C129.146,173.703 128.268,176.079 129.193,178.085 C129.868,179.55 131.315,180.413 132.829,180.413 C133.389,180.413 133.958,180.295 134.5,180.045 C143.17,176.05 151.273,170.887 158.583,164.696 C160.268,163.27 160.478,160.745 159.051,159.059 C157.623,157.372 155.1,157.164 153.413,158.592" fill="#CD853F" id="path29628"/>
    <path d="M116.308,178.2 C107.893,180.516 99.155,181.69 90.337,181.69 C70.377,181.69 51.185,175.71 34.836,164.397 C33.02,163.141 30.528,163.595 29.27,165.411 C28.014,167.228 28.467,169.72 30.284,170.975 C47.977,183.22 68.743,189.69 90.337,189.69 C99.871,189.69 109.324,188.42 118.431,185.913 C120.561,185.328 121.812,183.126 121.226,180.996 C120.64,178.867 118.443,177.616 116.308,178.2" fill="#CD853F" id="path29630"/>
    <path d="M28.045,159.458 C27.807,159.013 27.48,158.607 27.067,158.267 C25.478,156.953 23.082,157.02 21.624,158.477 C20.797,159.304 19.732,161.35 21.165,163.566 C21.395,163.986 21.705,164.371 22.093,164.699 C22.854,165.341 23.804,165.663 24.751,165.663 C25.772,165.663 26.788,165.287 27.552,164.529 C28.698,163.396 29.278,161.401 28.045,159.458" fill="#CD853F" id="path29632"/>
    <path d="M123.444,125.565 C128.407,125.565 132.444,129.601 132.444,134.565 C132.444,139.528 128.407,143.565 123.444,143.565 C118.481,143.565 114.444,139.528 114.444,134.565 C114.444,129.601 118.481,125.565 123.444,125.565 M123.444,151.565 C132.818,151.565 140.444,143.938 140.444,134.565 C140.444,125.191 132.818,117.565 123.444,117.565 C114.07,117.565 106.444,125.191 106.444,134.565 C106.444,143.938 114.07,151.565 123.444,151.565" fill="#ff0000" id="path29634"/>
    <path d="M74.398,109.414 C70.722,109.414 67.73,106.425 67.73,102.748 C67.73,99.072 70.722,96.081 74.398,96.081 C78.073,96.081 81.064,99.072 81.064,102.748 C81.064,106.425 78.073,109.414 74.398,109.414 M74.398,88.081 C66.31,88.081 59.73,94.661 59.73,102.748 C59.73,110.835 66.31,117.414 74.398,117.414 C82.484,117.414 89.064,110.835 89.064,102.748 C89.064,94.661 82.484,88.081 74.398,88.081" fill="#ff0000" id="path29636"/>
    <path d="M97.92,52.935 C99.364,52.935 100.661,53.794 101.223,55.123 L101.224,55.125 C101.409,55.565 101.504,56.034 101.504,56.518 C101.504,58.494 99.897,60.102 97.92,60.102 C95.944,60.102 94.337,58.494 94.337,56.518 C94.337,54.542 95.944,52.935 97.92,52.935 M97.92,68.102 C104.308,68.102 109.504,62.905 109.504,56.518 C109.504,54.957 109.197,53.44 108.592,52.009 C106.775,47.712 102.586,44.935 97.92,44.935 C91.533,44.935 86.337,50.131 86.337,56.518 C86.337,62.905 91.533,68.102 97.92,68.102" fill="#ff0000" id="path29638"/>
  </g>
</svg>
