<?xml version="1.0" encoding="UTF-8" standalone="no"?>
<svg
   xmlns:dc="http://purl.org/dc/elements/1.1/"
   xmlns:cc="http://creativecommons.org/ns#"
   xmlns:rdf="http://www.w3.org/1999/02/22-rdf-syntax-ns#"
   xmlns:svg="http://www.w3.org/2000/svg"
   xmlns="http://www.w3.org/2000/svg"
   xmlns:sodipodi="http://sodipodi.sourceforge.net/DTD/sodipodi-0.dtd"
   xmlns:inkscape="http://www.inkscape.org/namespaces/inkscape"
   version="1.1"
   x="0"
   y="0"
   width="180.674"
   height="205.496"
   viewBox="0, 0, 180.674, 205.496"
   id="svg114"
   sodipodi:docname="logo9.svg"
   inkscape:version="1.0.2 (394de47547, 2021-03-26)">
  <metadata
     id="metadata120">
    <rdf:RDF>
      <cc:Work
         rdf:about="">
        <dc:format>image/svg+xml</dc:format>
        <dc:type
           rdf:resource="http://purl.org/dc/dcmitype/StillImage" />
        <dc:title></dc:title>
      </cc:Work>
    </rdf:RDF>
  </metadata>
  <defs
     id="defs118" />
  <sodipodi:namedview
     pagecolor="#ffffff"
     bordercolor="#666666"
     borderopacity="1"
     objecttolerance="10"
     gridtolerance="10"
     guidetolerance="10"
     inkscape:pageopacity="0"
     inkscape:pageshadow="2"
     inkscape:window-width="1920"
     inkscape:window-height="1016"
     id="namedview116"
     showgrid="false"
     inkscape:zoom="4.1947288"
     inkscape:cx="90.336998"
     inkscape:cy="102.748"
     inkscape:window-x="0"
     inkscape:window-y="27"
     inkscape:window-maximized="1"
     inkscape:current-layer="svg114" />
  <g
     id="Layer_1"
     transform="matrix(1,0,0,-1,0,205.496)">
    <path
       d="m 90.337,197.496 c -33.149,0 -63.497,-16.425 -81.656,-44.063 l 6.344,-10.989 c 19.799,20.1 47.03,31.564 75.312,31.564 28.459,0 55.749,-11.555 75.579,-31.836 l 6.113,11.207 c -18.155,27.668 -48.521,44.117 -81.692,44.117 m 89.849,-45.871 -14.471,-26.529 c -1.058,-1.939 -3.486,-2.656 -5.427,-1.596 -1.939,1.058 -2.654,3.487 -1.597,5.426 l 3.204,5.873 c -18.454,19.851 -44.431,31.209 -71.558,31.209 -26.881,0 -52.735,-11.205 -71.149,-30.774 l 71.124,-123.191 55.101,96.816 c 1.093,1.92 3.535,2.592 5.455,1.499 1.92,-1.092 2.591,-3.536 1.498,-5.455 L 93.814,2.022 C 93.105,0.776 91.783,0.005 90.349,0 h -0.012 c -1.429,0 -2.75,0.763 -3.464,2 L 0.536,151.541 c -0.739,1.28 -0.712,2.862 0.07,4.116 19.462,31.208 53.006,49.839 89.731,49.839 36.726,0 70.27,-18.631 89.731,-49.839 0.763,-1.224 0.808,-2.765 0.118,-4.032"
       fill="#000000"
       id="path29624" />
    <path
       d="m 151.464,117.117 c 0.178,2.087 1.926,3.661 3.98,3.661 0.115,0 0.23,-0.006 0.345,-0.015 l 0.55,-0.046 c 2.201,-0.188 3.833,-2.125 3.646,-4.326 -0.188,-2.201 -2.129,-3.832 -4.326,-3.645 l -0.549,0.046 c -2.202,0.187 -3.833,2.125 -3.646,4.325"
       fill="#000000"
       id="path29626" />
    <path
       d="m 153.413,158.592 c -6.758,5.722 -14.247,10.496 -22.261,14.188 -2.006,0.923 -2.884,3.299 -1.959,5.305 0.675,1.465 2.122,2.328 3.636,2.328 0.56,0 1.129,-0.118 1.671,-0.368 8.67,-3.995 16.773,-9.158 24.083,-15.349 1.685,-1.426 1.895,-3.951 0.468,-5.637 -1.428,-1.687 -3.951,-1.895 -5.638,-0.467"
       fill="#cd853f"
       id="path29628" />
    <path
       d="m 116.308,178.2 c -8.415,2.316 -17.153,3.49 -25.971,3.49 -19.96,0 -39.152,-5.98 -55.501,-17.293 -1.816,-1.256 -4.308,-0.802 -5.566,1.014 -1.256,1.817 -0.803,4.309 1.014,5.564 17.693,12.245 38.459,18.715 60.053,18.715 9.534,0 18.987,-1.27 28.094,-3.777 2.13,-0.585 3.381,-2.787 2.795,-4.917 -0.586,-2.129 -2.783,-3.38 -4.918,-2.796"
       fill="#cd853f"
       id="path29630" />
    <path
       d="m 28.045,159.458 c -0.238,-0.445 -0.565,-0.851 -0.978,-1.191 -1.589,-1.314 -3.985,-1.247 -5.443,0.21 -0.827,0.827 -1.892,2.873 -0.459,5.089 0.23,0.42 0.54,0.805 0.928,1.133 0.761,0.642 1.711,0.964 2.658,0.964 1.021,0 2.037,-0.376 2.801,-1.134 1.146,-1.133 1.726,-3.128 0.493,-5.071"
       fill="#cd853f"
       id="path29632" />
    <path
       d="m 123.444,125.565 c 4.963,0 9,4.036 9,9 0,4.963 -4.037,9 -9,9 -4.963,0 -9,-4.037 -9,-9 0,-4.964 4.037,-9 9,-9 m 0,26 c 9.374,0 17,-7.627 17,-17 0,-9.374 -7.626,-17 -17,-17 -9.374,0 -17,7.626 -17,17 0,9.373 7.626,17 17,17"
       fill="#ff0000"
       id="path29634" />
    <path
       d="m 74.398,109.414 c -3.676,0 -6.668,-2.989 -6.668,-6.666 0,-3.676 2.992,-6.667 6.668,-6.667 3.675,0 6.666,2.991 6.666,6.667 0,3.677 -2.991,6.666 -6.666,6.666 m 0,-21.333 c -8.088,0 -14.668,6.58 -14.668,14.667 0,8.087 6.58,14.666 14.668,14.666 8.086,0 14.666,-6.579 14.666,-14.666 0,-8.087 -6.58,-14.667 -14.666,-14.667"
       fill="#ff0000"
       id="path29636" />
    <path
       d="m 97.92,52.935 c 1.444,0 2.741,0.859 3.303,2.188 l 0.001,0.002 c 0.185,0.44 0.28,0.909 0.28,1.393 0,1.976 -1.607,3.584 -3.584,3.584 -1.976,0 -3.583,-1.608 -3.583,-3.584 0,-1.976 1.607,-3.583 3.583,-3.583 m 0,15.167 c 6.388,0 11.584,-5.197 11.584,-11.584 0,-1.561 -0.307,-3.078 -0.912,-4.509 -1.817,-4.297 -6.006,-7.074 -10.672,-7.074 -6.387,0 -11.583,5.196 -11.583,11.583 0,6.387 5.196,11.584 11.583,11.584"
       fill="#ff0000"
       id="path29638" />
  </g>
</svg>
